<?xml version="1.0" standalone="no"?>
<!DOCTYPE svg PUBLIC "-//W3C//DTD SVG 20010904//EN"
 "http://www.w3.org/TR/2001/REC-SVG-20010904/DTD/svg10.dtd">
<svg version="1.0" xmlns="http://www.w3.org/2000/svg"
 width="655.000000pt" height="655.000000pt" viewBox="0 0 655.000000 655.000000"
 preserveAspectRatio="xMidYMid meet">
<metadata>
Created by potrace 1.14, written by Peter Selinger 2001-2017
</metadata>
<g transform="translate(0.000000,655.000000) scale(0.100000,-0.100000)"
fill="#000000" stroke="none">
<path d="M3280 6472 c-8 -3 -107 -59 -220 -125 -113 -66 -218 -128 -235 -137
-16 -9 -106 -62 -200 -117 -221 -130 -1161 -681 -1200 -703 -16 -10 -120 -70
-230 -135 -110 -64 -312 -183 -450 -263 -137 -80 -252 -147 -255 -149 -8 -7
-8 -3176 1 -3199 4 -12 35 -35 71 -54 35 -18 116 -64 181 -101 65 -38 122 -69
127 -69 6 0 10 -4 10 -10 0 -5 4 -10 10 -10 5 0 80 -41 166 -90 85 -50 159
-90 165 -90 5 0 9 -4 9 -10 0 -5 3 -9 8 -8 4 1 18 -5 32 -14 55 -35 152 -88
161 -88 5 0 9 -4 9 -10 0 -5 4 -10 10 -10 5 0 145 -78 312 -174 167 -95 323
-184 348 -198 25 -14 132 -75 239 -137 106 -61 197 -111 202 -111 5 0 9 -4 9
-10 0 -5 4 -10 9 -10 6 0 164 -88 352 -196 373 -214 360 -209 436 -161 21 13
58 35 83 49 25 14 259 151 520 303 261 153 491 286 510 297 19 11 76 44 125
73 175 103 440 258 475 278 31 17 432 250 775 450 159 92 183 109 187 127 2 8
3 729 3 1603 l-1 1587 -24 18 c-20 14 -885 529 -995 592 -16 10 -122 72 -234
139 -112 66 -205 121 -208 121 -3 0 -17 8 -31 19 -15 10 -90 56 -167 101 -149
88 -150 89 -277 165 -46 27 -92 54 -103 60 -11 7 -81 48 -155 92 -74 44 -149
89 -167 99 -18 11 -94 56 -170 101 -191 113 -206 120 -223 115z"/>
</g>
</svg>
